<svg xmlns="http://www.w3.org/2000/svg" viewBox="0 0 200 40" fill="none">
  <!-- Icon: stylized shield/document with AI circuit -->
  <g transform="translate(0, 2)">
    <!-- Outer shield shape -->
    <path d="M4 6C4 3.79 5.79 2 8 2h20c2.21 0 4 1.79 4 4v18c0 1.5-0.5 2.8-1.5 3.8L22 36.3c-1 1-2.3 1.5-3.8 1.5H8c-2.21 0-4-1.79-4-4V6z" fill="white" fill-opacity="0.15" stroke="white" stroke-width="1.5"/>
    <!-- Inner circuit lines -->
    <path d="M12 10h12M12 16h8M12 22h5" stroke="white" stroke-width="1.5" stroke-linecap="round"/>
    <!-- AI dot accents -->
    <circle cx="28" cy="16" r="2" fill="#00E68A"/>
    <circle cx="22" cy="22" r="2" fill="#00E68A"/>
    <!-- Corner fold -->
    <path d="M24 32v-4c0-1.1 0.9-2 2-2h4" stroke="white" stroke-width="1" stroke-linecap="round" fill="none"/>
  </g>
  <!-- Text: LexAI -->
  <text x="44" y="29" font-family="Inter, system-ui, -apple-system, sans-serif" font-weight="700" font-size="26" fill="white" letter-spacing="-0.5">Lex<tspan fill="#00E68A">AI</tspan></text>
</svg>
